<svg width="20" height="20" viewBox="0 0 20 20" fill="none" xmlns="http://www.w3.org/2000/svg">
<path d="M1.256 9.21597V6.97597H1.776C1.84533 6.81064 1.90666 6.61864 1.96 6.39997C2.01333 6.17597 2.056 5.93597 2.088 5.67997C2.12533 5.41864 2.152 5.14931 2.168 4.87197C2.18933 4.58931 2.2 4.30397 2.2 4.01597V2.27197H6V6.97597H6.64V9.21597H5.608V7.99997H2.288V9.21597H1.256ZM2.88 6.97597H4.928V3.29597H3.232V4.19997C3.232 4.54131 3.21866 4.87731 3.192 5.20797C3.16533 5.53331 3.12533 5.83997 3.072 6.12797C3.024 6.41597 2.96 6.67731 2.88 6.91197V6.97597Z" fill="#222124"/>
<path d="M9.68543 7.99997V2.81597H10.7574V7.99997H9.68543ZM7.92543 3.29597V2.27197H12.5174V3.29597H7.92543Z" fill="#222124"/>
<path d="M1.256 9.21597V6.97597H1.776C1.84533 6.81064 1.90666 6.61864 1.96 6.39997C2.01333 6.17597 2.056 5.93597 2.088 5.67997C2.12533 5.41864 2.152 5.14931 2.168 4.87197C2.18933 4.58931 2.2 4.30397 2.2 4.01597V2.27197H6V6.97597H6.64V9.21597H5.608V7.99997H2.288V9.21597H1.256ZM2.88 6.97597H4.928V3.29597H3.232V4.19997C3.232 4.54131 3.21866 4.87731 3.192 5.20797C3.16533 5.53331 3.12533 5.83997 3.072 6.12797C3.024 6.41597 2.96 6.67731 2.88 6.91197V6.97597Z" stroke="#222124"/>
<path d="M9.68543 7.99997V2.81597H10.7574V7.99997H9.68543ZM7.92543 3.29597V2.27197H12.5174V3.29597H7.92543Z" stroke="#222124"/>
<path d="M7.8536 18V12.272H8.9336V14.96H8.9976L10.9656 12.272H12.2536V12.336L10.1576 15.16L12.3976 17.936V18H11.0536L8.9976 15.448H8.9336V18H7.8536Z" fill="#222124"/>
<path d="M15.3821 18V12.816H16.4541V18H15.3821ZM13.6221 13.296V12.272H18.2141V13.296H13.6221Z" fill="#222124"/>
<path d="M7.8536 18V12.272H8.9336V14.96H8.9976L10.9656 12.272H12.2536V12.336L10.1576 15.16L12.3976 17.936V18H11.0536L8.9976 15.448H8.9336V18H7.8536Z" stroke="#222124"/>
<path d="M15.3821 18V12.816H16.4541V18H15.3821ZM13.6221 13.296V12.272H18.2141V13.296H13.6221Z" stroke="#222124"/>
</svg>
