<svg width="16" height="16" viewBox="0 0 16 16" fill="none" xmlns="http://www.w3.org/2000/svg">
<path d="M4 10H2V3H14V10H12.5" stroke="#222124" stroke-width="2"/>
<path d="M13 11.5C13 12.2445 12.7626 12.9696 12.3223 13.5699C11.882 14.1703 11.2617 14.6146 10.5516 14.8383C9.84152 15.062 9.07859 15.0534 8.37369 14.8138C7.6688 14.5742 7.05866 14.1161 6.63194 13.5061C6.20523 12.896 5.98417 12.1657 6.00088 11.4214C6.0176 10.6771 6.27122 9.95751 6.72489 9.36721C7.17857 8.77691 7.80866 8.34665 8.5236 8.13895C9.23854 7.93126 10.0011 7.95695 10.7004 8.2123" stroke="#2A75F4" stroke-width="2"/>
<path d="M9 5L12 8L9 11" stroke="#2A75F4" stroke-width="2"/>
</svg>
