<svg width="20" height="20" viewBox="0 0 20 20" fill="none" xmlns="http://www.w3.org/2000/svg">
<g clip-path="url(#clip0_214_5849)">
<path d="M13.0859 2.10742C13.191 2.14854 13.2951 2.19199 13.3984 2.2373L14.9131 1.125L18.875 5.08691L18.4941 5.60547L17.7617 6.60059C17.8071 6.70394 17.8505 6.80804 17.8916 6.91309L19.75 7.19824V12.8018L17.8916 13.0859C17.8505 13.191 17.807 13.2951 17.7617 13.3984L18.875 14.9131L14.9131 18.875L13.3984 17.7617C13.2951 17.807 13.191 17.8505 13.0859 17.8916L12.8018 19.75H7.19824L6.91309 17.8916C6.80804 17.8505 6.70394 17.8071 6.60059 17.7617L5.60547 18.4941L5.08691 18.875L1.125 14.9131L2.2373 13.3984C2.19199 13.2951 2.14854 13.191 2.10742 13.0859L0.25 12.8018V7.19824L2.10742 6.91309C2.14855 6.80805 2.19198 6.70394 2.2373 6.60059L1.125 5.08691L5.08691 1.125L6.60059 2.2373C6.70393 2.19198 6.80805 2.14855 6.91309 2.10742L7.19824 0.25H12.8018L13.0859 2.10742ZM9.19727 4.07617L8.40332 4.29883C7.95024 4.42546 7.51066 4.60663 7.09863 4.83887L6.80273 5.00684L6.37988 5.24414L5.3418 4.48145L4.48145 5.3418L5.24414 6.37988L4.83984 7.09863C4.60761 7.51061 4.42546 7.95021 4.29883 8.40332L4.07617 9.19727L2.80469 9.3916V10.6074L4.07617 10.8027L4.29883 11.5967C4.42546 12.0498 4.60663 12.4893 4.83887 12.9014L5.00684 13.1973L5.24414 13.6201L4.95801 14.0098L4.48145 14.6572L5.3418 15.5176L6.37988 14.7559L7.09863 15.1602C7.51061 15.3924 7.95021 15.5745 8.40332 15.7012L9.19727 15.9238L9.3916 17.1953H10.6084L10.8027 15.9238L11.5967 15.7012C12.0498 15.5745 12.4893 15.3934 12.9014 15.1611L13.1973 14.9932L13.6201 14.7559L14.6572 15.5176L15.5176 14.6572L14.7559 13.6201L15.1602 12.9014C15.3924 12.4894 15.5745 12.0498 15.7012 11.5967L15.9238 10.8027L17.1953 10.6074V9.3916L15.9238 9.19727L15.7012 8.40332C15.5745 7.95024 15.3934 7.51066 15.1611 7.09863L14.9932 6.80273L14.7559 6.37988L15.5176 5.3418L14.6572 4.48145L14.0098 4.95801L13.6201 5.24414L12.9014 4.83984C12.4894 4.60761 12.0498 4.42546 11.5967 4.29883L10.8027 4.07617L10.6084 2.80469H9.3916L9.19727 4.07617Z" fill="#222124"/>
<circle cx="10" cy="10" r="3" stroke="#222124" stroke-width="3"/>
</g>
<defs>
<clipPath id="clip0_214_5849">
<rect width="20" height="20" fill="white"/>
</clipPath>
</defs>
</svg>
