<svg width="20" height="20" viewBox="0 0 20 20" fill="none" xmlns="http://www.w3.org/2000/svg">
<g clip-path="url(#clip0_214_6365)">
<path d="M4.70335 4.8668C5.89097 3.64136 7.46676 2.86563 9.16221 2.67177C10.8577 2.47792 12.5679 2.87793 14.0015 3.80366C15.435 4.7294 16.5033 6.12356 17.0242 7.74862C17.5451 9.37368 17.4864 11.1291 16.8581 12.7157C16.2299 14.3024 15.0709 15.6221 13.5787 16.45C12.0865 17.2779 10.3534 17.5628 8.67464 17.2561C6.99592 16.9495 5.47547 16.0703 4.37234 14.7682C3.26921 13.4662 2.65167 11.822 2.62493 10.1157" stroke="#222124" stroke-width="3"/>
<path d="M9.62769 6.41504V10.88L11.5652 12.8175" stroke="#222124" stroke-width="3"/>
<path d="M1.77319 6.2345V1.87793L7.00089 6.98959C5.5939 6.99604 2.69085 7.00508 2.33458 6.98959C1.97832 6.9741 1.81188 6.47974 1.77319 6.2345Z" fill="#222124"/>
</g>
<defs>
<clipPath id="clip0_214_6365">
<rect width="18" height="18" fill="white" transform="translate(1 1)"/>
</clipPath>
</defs>
</svg>
