<svg width="20" height="20" viewBox="0 0 20 20" fill="none" xmlns="http://www.w3.org/2000/svg">
<g clip-path="url(#clip0_214_6965)">
<path d="M10 1L12.1329 7.56434H19.035L13.4511 11.6213L15.584 18.1857L10 14.1287L4.41604 18.1857L6.54892 11.6213L0.964963 7.56434H7.86712L10 1Z" fill="#2A75F4"/>
<path d="M19.1667 5.79667H13.56L11.705 0H8.295L6.44 5.79667H0.833333L0 9.51917L4.25 12.6308L2.13917 19.1808L5.74333 20L10 16.86L14.26 20L17.8633 19.1775L15.75 12.6308L20 9.51917L19.1667 5.79667ZM12.8183 11.6758L14.5683 17.12L10 13.7492L5.4275 17.12L7.18167 11.6758L2.57833 8.30333H8.26333L10 2.87583L11.7367 8.30333H17.4217L12.8183 11.6758Z" fill="#2A75F4"/>
</g>
<defs>
<clipPath id="clip0_214_6965">
<rect width="20" height="20" fill="white"/>
</clipPath>
</defs>
</svg>
