<svg width="24" height="24" viewBox="0 0 24 24" fill="none" xmlns="http://www.w3.org/2000/svg">
<g clip-path="url(#clip0_214_5083)">
<path d="M7 16H24V9H7V16ZM14 0H7V7H14V0ZM16 2V7H24V2H16ZM24 20H23V21C23 22.654 21.654 24 20 24C18.346 24 17 22.654 17 21V20H12V21C12 22.654 10.654 24 9 24C7.346 24 6 22.654 6 21V20C4.346 20 3 18.654 3 17V3C3 2.448 2.551 2 2 2H0V0H2C3.654 0 5 1.346 5 3V17C5 17.552 5.449 18 6 18H24V20Z" fill="white"/>
</g>
<defs>
<clipPath id="clip0_214_5083">
<rect width="24" height="24" fill="white"/>
</clipPath>
</defs>
</svg>
