<svg width="24" height="24" viewBox="0 0 24 24" fill="none" xmlns="http://www.w3.org/2000/svg">
<g clip-path="url(#clip0_214_5108)">
<path d="M20.0726 5.14165H23.983L19.8414 1V4.91046C19.8414 5.03817 19.9449 5.14165 20.0726 5.14165Z" fill="white"/>
<path d="M18.4956 5.81451V1L6.16486 1.03319C5.79344 1.03319 5.492 1.33463 5.492 1.70605V4.4374C6.63631 3.51783 8.04751 3.01857 9.53632 3.01857C11.2665 3.01857 12.893 3.69322 14.1153 4.91781C15.9486 6.75381 16.4497 9.4264 15.6185 11.7195H20.6227C20.9942 11.7195 21.2956 12.0209 21.2956 12.3923C21.2956 12.7638 20.9942 13.0652 20.6227 13.0652H14.9434C14.707 13.4245 14.4307 13.7654 14.1153 14.0812C12.893 15.3063 11.2665 15.9809 9.53632 15.9809C8.94375 15.9809 8.36375 15.902 7.80753 15.7485L5.492 18.0681V23.3271C5.492 23.6986 5.79344 24 6.16486 24L23.3101 23.9668C23.6815 23.9668 23.983 23.6654 23.983 23.294V6.48736H19.1685C18.7971 6.48736 18.4956 6.18592 18.4956 5.81451ZM8.84462 17.1485H13.39C13.7614 17.1485 14.0628 17.45 14.0628 17.8214C14.0628 18.1928 13.7614 18.4942 13.39 18.4942H8.84462C8.47275 18.4942 8.17176 18.1928 8.17176 17.8214C8.17176 17.45 8.47275 17.1485 8.84462 17.1485ZM20.6227 21.1857H8.84462C8.47275 21.1857 8.17176 20.8842 8.17176 20.5128C8.17176 20.1414 8.47275 19.84 8.84462 19.84H20.6227C20.9942 19.84 21.2956 20.1414 21.2956 20.5128C21.2956 20.8842 20.9942 21.1857 20.6227 21.1857ZM20.6227 18.4942H16.0774C15.7055 18.4942 15.4045 18.1928 15.4045 17.8214C15.4045 17.45 15.7055 17.1485 16.0774 17.1485H20.6227C20.9942 17.1485 21.2956 17.45 21.2956 17.8214C21.2956 18.1928 20.9942 18.4942 20.6227 18.4942ZM20.6227 15.7566H16.0774C15.7055 15.7566 15.4045 15.4552 15.4045 15.0838C15.4045 14.7123 15.7055 14.4109 16.0774 14.4109H20.6227C20.9942 14.4109 21.2956 14.7123 21.2956 15.0838C21.2956 15.4552 20.9942 15.7566 20.6227 15.7566ZM21.2956 9.70092C21.2956 10.0723 20.9942 10.3738 20.6227 10.3738H17.4208C17.0494 10.3738 16.748 10.0723 16.748 9.70092C16.748 9.3295 17.0494 9.02806 17.4208 9.02806H20.6227C20.9942 9.02806 21.2956 9.3295 21.2956 9.70092Z" fill="white"/>
<path d="M9.53633 14.6352C10.9063 14.6352 12.1946 14.1009 13.163 13.1307C15.1623 11.1287 15.1623 7.87073 13.163 5.86876C12.1946 4.89851 10.9063 4.36426 9.53633 4.36426C8.16595 4.36426 6.8781 4.89851 5.90919 5.86876C3.90991 7.87073 3.90991 11.1287 5.90919 13.1307C6.8781 14.1009 8.16595 14.6352 9.53633 14.6352ZM7.39665 8.94012C7.65951 8.67726 8.08565 8.67726 8.34807 8.94012L9.03752 9.62913L10.7241 7.94295C10.9866 7.68009 11.4127 7.68009 11.6756 7.94295C11.9384 8.20582 11.9384 8.63151 11.6756 8.89437L9.51345 11.0565C9.38202 11.1879 9.20977 11.2539 9.03752 11.2539C8.86527 11.2539 8.69302 11.1879 8.56158 11.0565L7.39665 9.89154C7.13378 9.62868 7.13378 9.20254 7.39665 8.94012Z" fill="white"/>
<path d="M4.95688 14.0817C4.50472 13.6286 4.1333 13.1249 3.84308 12.5884L1.55672 14.8783C0.837208 15.5983 0.837208 16.7695 1.55627 17.4899C1.90525 17.8393 2.36863 18.0313 2.86161 18.0313C3.35503 18.0313 3.81886 17.8393 4.1674 17.4899L6.45241 15.2018C5.90919 14.9066 5.4059 14.5311 4.95688 14.0817Z" fill="white"/>
</g>
<defs>
<clipPath id="clip0_214_5108">
<rect width="23" height="23" fill="white" transform="translate(1 1)"/>
</clipPath>
</defs>
</svg>
