<svg width="40" height="40" viewBox="0 0 40 40" fill="none" xmlns="http://www.w3.org/2000/svg">
<rect width="40" height="40" rx="8" fill="#222124"/>
<g clip-path="url(#clip0_33_3171)">
<path d="M8 11V19H19V8H11C10.2044 8 9.44129 8.31607 8.87868 8.87868C8.31607 9.44129 8 10.2044 8 11Z" fill="white"/>
<path d="M8 29C8 29.7956 8.31607 30.5587 8.87868 31.1213C9.44129 31.6839 10.2044 32 11 32H19V21H8V29Z" fill="white"/>
<path d="M21 21V32H29C29.7956 32 30.5587 31.6839 31.1213 31.1213C31.6839 30.5587 32 29.7956 32 29V21H21Z" fill="white"/>
<path d="M25 19H27V15H31V13H27V9H25V13H21V15H25V19Z" fill="white"/>
</g>
<defs>
<clipPath id="clip0_33_3171">
<rect width="24" height="24" fill="white" transform="translate(8 8)"/>
</clipPath>
</defs>
</svg>
