<svg width="24" height="24" viewBox="0 0 24 24" fill="none" xmlns="http://www.w3.org/2000/svg">
<g clip-path="url(#clip0_214_5118)">
<path d="M23.999 15.377L10.894 10.894L15.378 23.999L17.685 19.099L22.543 23.957L23.957 22.543L19.099 17.685L23.999 15.377ZM10 18.5C10 18.131 9.934 17.781 9.84 17.442L11.265 16.621L10.267 14.889L8.853 15.704C8.352 15.193 7.713 14.828 7 14.642V13H5V14.642C4.287 14.827 3.648 15.193 3.147 15.704L1.733 14.889L0.735 16.621L2.16 17.442C2.066 17.781 2 18.131 2 18.5C2 18.869 2.066 19.219 2.16 19.558L0.735 20.379L1.733 22.111L3.147 21.296C3.648 21.807 4.287 22.172 5 22.358V24H7V22.358C7.713 22.173 8.352 21.807 8.853 21.296L10.267 22.111L11.265 20.379L9.84 19.558C9.934 19.219 10 18.869 10 18.5ZM6 20C5.173 20 4.5 19.327 4.5 18.5C4.5 17.673 5.173 17 6 17C6.827 17 7.5 17.673 7.5 18.5C7.5 19.327 6.827 20 6 20ZM21 0H3C1.346 0 0 1.346 0 3V7H24V3C24 1.346 22.654 0 21 0ZM3.5 5C2.672 5 2 4.328 2 3.5C2 2.672 2.672 2 3.5 2C4.328 2 5 2.672 5 3.5C5 4.328 4.328 5 3.5 5ZM7.5 5C6.672 5 6 4.328 6 3.5C6 2.672 6.672 2 7.5 2C8.328 2 9 2.672 9 3.5C9 4.328 8.328 5 7.5 5ZM11.536 9H24V13.264L11.536 9ZM0 14.014V9H8.132L9.037 11.646C8.108 11.234 7.082 11 6 11C3.543 11 1.368 12.187 0 14.014Z" fill="white"/>
</g>
<defs>
<clipPath id="clip0_214_5118">
<rect width="24" height="24" fill="white"/>
</clipPath>
</defs>
</svg>
