<svg width="24" height="24" viewBox="0 0 24 24" fill="none" xmlns="http://www.w3.org/2000/svg">
<g clip-path="url(#clip0_214_5093)">
<path d="M9.50002 2.5C9.50002 1.119 10.619 0 12 0C13.381 0 14.5 1.119 14.5 2.5C14.5 3.881 13.381 5 12 5C10.619 5 9.50002 3.881 9.50002 2.5ZM8.70002 11.567C7.68302 10.644 6.03202 10.846 5.29302 12.1C4.81302 12.915 4.96202 13.958 5.56502 14.686L8.80802 17.961L7.40402 19.365L3.96702 15.893C2.63802 14.289 2.69202 11.916 4.09202 10.374C4.23902 10.212 4.99902 9.596 4.99902 9.596V5.642C4.99902 4.334 4.05802 3.143 2.75702 3.012C1.26102 2.862 -0.000976562 4.033 -0.000976562 5.499V17.889C-0.000976562 18.887 0.372023 19.85 1.04602 20.587L4.16302 23.999H13.999V17.707C13.999 16.861 13.642 16.055 13.016 15.486L8.69902 11.566L8.70002 11.567ZM18.435 14.687L15.948 17.219C15.826 15.994 15.279 14.841 14.361 14.007L13.487 13.213L15.3 11.567C16.317 10.644 17.968 10.846 18.707 12.1C19.187 12.915 19.038 13.958 18.435 14.686V14.687ZM24 5.5V17.89C24 18.888 23.627 19.851 22.953 20.588L19.836 24H16V19.981L20.033 15.893C21.362 14.289 21.308 11.916 19.908 10.374C19.761 10.212 19.001 9.596 19.001 9.596V5.5C19.001 4.119 20.12 3 21.501 3C22.882 3 24 4.119 24 5.5ZM10.044 10.087L12 11.862L13.957 10.086C14.54 9.556 15.247 9.207 16 9.065V8.5C16 7.122 14.879 6 13.5 6H10.5C9.12102 6 8.00002 7.122 8.00002 8.5V9.066C8.75302 9.209 9.46102 9.558 10.044 10.088V10.087Z" fill="white"/>
</g>
<defs>
<clipPath id="clip0_214_5093">
<rect width="24" height="24" fill="white"/>
</clipPath>
</defs>
</svg>
