<svg width="24" height="24" viewBox="0 0 24 24" fill="none" xmlns="http://www.w3.org/2000/svg">
<g clip-path="url(#clip0_214_5088)">
<path d="M15.5 0C14.672 0 14 0.672 14 1.5C14 2.328 14.672 3 15.5 3C16.328 3 17 2.328 17 1.5C17 0.672 16.328 0 15.5 0ZM22.5 5C21.672 5 21 5.672 21 6.5C21 7.328 21.672 8 22.5 8C23.328 8 24 7.328 24 6.5C24 5.672 23.328 5 22.5 5ZM15.5 8H17.833L22.5 0H20.167L15.5 8ZM11.5 5C11.5 6.657 8.926 8 5.75 8C2.574 8 0 6.657 0 5C0 3.343 2.574 2 5.75 2C8.926 2 11.5 3.343 11.5 5ZM11.5 18.5V20.5C11.5 22.495 9.028 24 5.75 24C2.472 24 0 22.495 0 20.5V18.5C0 20.471 2.396 22 5.75 22C9.104 22 11.5 20.471 11.5 18.5ZM11.5 14.5V16.5C11.5 18.495 9.028 20 5.75 20C2.472 20 0 18.495 0 16.5V14.5C0 16.471 2.396 18 5.75 18C9.104 18 11.5 16.471 11.5 14.5ZM11.5 10.5V12.5C11.5 14.495 9.028 16 5.75 16C2.472 16 0 14.495 0 12.5V10.5C0 12.471 2.396 14 5.75 14C9.104 14 11.5 12.471 11.5 10.5ZM11.5 6.5V8.5C11.5 10.495 9.028 12 5.75 12C2.472 12 0 10.495 0 8.5V6.5C0 8.471 2.396 10 5.75 10C9.104 10 11.5 8.471 11.5 6.5ZM23 13C23 14.657 20.426 16 17.25 16C14.074 16 11.5 14.657 11.5 13C11.5 11.343 14.074 10 17.25 10C20.426 10 23 11.343 23 13ZM23 18.5V20.5C23 22.495 20.528 24 17.25 24C13.972 24 11.5 22.495 11.5 20.5V18.5C11.5 20.471 13.896 22 17.25 22C20.604 22 23 20.471 23 18.5ZM23 14.5V16.5C23 18.495 20.528 20 17.25 20C13.972 20 11.5 18.495 11.5 16.5V14.5C11.5 16.471 13.896 18 17.25 18C20.604 18 23 16.471 23 14.5Z" fill="currentColor"/>
</g>
<defs>
<clipPath id="clip0_214_5088">
<rect width="24" height="24" fill="white"/>
</clipPath>
</defs>
</svg>
